<?xml version="1.0" encoding="utf-8"?>
<!-- Generator: Adobe Illustrator 24.0.1, SVG Export Plug-In . SVG Version: 6.00 Build 0)  -->
<svg version="1.1" id="white" xmlns="http://www.w3.org/2000/svg" xmlns:xlink="http://www.w3.org/1999/xlink" x="0px" y="0px"
	 viewBox="0 0 4030.2 1930" style="enable-background:new 0 0 4030.2 1930;" xml:space="preserve">
<style type="text/css">
	.st0{fill:#241E1E;}
</style>
<title>vc_thumbnail_2</title>
<path class="st0" d="M4003.2,287V145h22V57h-28V0h-193v57h-28v88h22v142H691.5L0,772h140.2v1158h3868v-925h22V287L4003.2,287z
	 M3560.2,1060h51v153h-51V1060z M3560.2,1288h51v59h-51V1288z M3087.2,985v-97h78v97H3087.2z M3087.2,1213v-153h78v153H3087.2z
	 M3087.2,1347v-59h78v59H3087.2z M3242.2,985v-97h78v97H3242.2z M3242.2,1347v-59h78v59H3242.2z M2250.2,812V659h58v153H2250.2z
	 M2250.2,985v-97h58v97H2250.2z M2305.2,1288.5v59h-52.5v-59H2305.2z M2250.2,1213v-153h58v153H2250.2z M2532.2,812V659h58v153
	H2532.2z M2532.2,985v-97h58v97H2532.2z M2587.2,1288.5v59h-52.5v-59H2587.2z M2532.2,1213v-153h58v153H2532.2z M2662.2,985v-97h78
	v97H2662.2z M2657.7,1347.5V1289h78v58.5H2657.7z M2477.2,1489.5V1773h-40v-342h232v342h-37v-283.5H2477.2z M2381.2,985v-97h78v97
	H2381.2z M2381.7,1347.5V1289h78v58.5H2381.7z M2123.7,1347.5v-59h52.5v59H2123.7z M2118.2,985v-97h58v97H2118.2z M2118.2,812V659
	h58v153H2118.2z M2176.2,1060v153h-58v-153H2176.2z M2309.2,1842h-186v-411h250v342h-64V1842z M2996.2,1842h-183v-69h-80v-342h263
	V1842z M2811.2,812V659h58v153H2811.2z M2811.2,985v-97h58v97H2811.2z M2811.2,1213v-153h58v153H2811.2z M2811.2,1347.5v-59h58v59
	H2811.2z M2999.2,1347.5h-55.4v-59h55.4V1347.5z M3001.2,1213h-58v-153h58V1213z M3001.2,985h-58v-97h58V985z M3001.2,812h-58V659
	h58V812z M2027.2,1842h-904v-411h904V1842z M1118.2,812V659h78v153H1118.2z M1118.2,985v-97h78v97H1118.2z M1118.2,1213v-153h78v153
	H1118.2z M1196.2,1288v59h-78v-59H1196.2z M1273.2,985v-97h78v97H1273.2z M1273.2,1347v-59h78v59H1273.2z M1428.2,985v-97h78v97
	H1428.2z M1428.2,1213v-153h78v153H1428.2z M1428.2,1347v-59h78v59H1428.2z M1607.2,812V659h93v153H1607.2z M1607.2,985v-97h93v97
	H1607.2z M1607.2,1213v-153h93v153H1607.2z M1607.2,1347v-59h93v59H1607.2z M1799.2,985v-97h78v97H1799.2z M1799.2,1347v-59h78v59
	H1799.2z M2032.2,1347h-78v-59h78V1347z M2032.2,1213h-78v-153h78V1213z M2032.2,985h-78v-97h78V985z M2032.2,812h-78V659h78V812z
	 M910.2,1288v59h-70v-59H910.2z M759.2,1060v287h-85v-287H759.2z M1038.2,1347h-51v-59h51V1347z M1038.2,1213h-51v-153h51V1213z
	 M225.2,813h51v172h-51V813z M225.2,1060h51v153h-51V1060z M225.2,1288h51v59h-51V1288z M551.2,1842h-321v-411h321V1842z
	 M425.2,1288v59h-70v-59H425.2z M355.7,985V813h70v172H355.7z M558.2,1347h-51v-59h51V1347z M558.2,1213h-51v-153h51V1213z
	 M558.2,985h-51V813h51V985z M234.4,698l480.5-337h260.4l0.8,249.9l37-0.9c2.6,9.7,7.8,18.5,15.2,25.4V931h-380V698H234.4z
	 M674.2,1431h359v411h-359V1431z M3475.2,1842h-388v-411h388V1842z M3475.2,1347h-78v-59h78V1347z M3475.2,1213h-78v-153h78V1213z
	 M3475.2,985h-78v-97h78V985z M3475.2,812h-78V659h78V812z M3535.2,527h-2486V361h2486V527z M3923.2,1842h-363v-411h363V1842z
	 M3688.2,1347v-59h70v59H3688.2z M3923.2,1347h-87v-287h87V1347z M3956.2,931h-395V635.4c7.5-7,12.8-15.9,15.3-25.8l32.7-0.5V361
	h347V931z"/>
<rect x="1214.2" y="1472" class="st0" width="196" height="272"/>
<rect x="1740.2" y="1472" class="st0" width="196" height="272"/>
<rect x="3183.2" y="1472" class="st0" width="196" height="272"/>
<rect x="3625.2" y="1472" class="st0" width="196" height="272"/>
<rect x="777.2" y="1472" class="st0" width="196" height="272"/>
<rect x="2198.2" y="1480.8" class="st0" width="141" height="194.4"/>
<rect x="2770.2" y="1480.8" class="st0" width="141" height="194.4"/>
<rect x="293.2" y="1472" class="st0" width="196" height="272"/>
</svg>
